<svg width="120" height="120" viewBox="0 0 120 120" fill="none" xmlns="http://www.w3.org/2000/svg">
  <defs>
    <linearGradient id="doBlue" x1="34" y1="20" x2="98" y2="104" gradientUnits="userSpaceOnUse">
      <stop stop-color="#4DA3FF"></stop>
      <stop offset="0.55" stop-color="#2563EB"></stop>
      <stop offset="1" stop-color="#1E3A8A"></stop>
    </linearGradient>
    <linearGradient id="doWin" x1="0" y1="0" x2="1" y2="1">
      <stop stop-color="#FFC24B"></stop>
      <stop offset="1" stop-color="#FF7A2F"></stop>
    </linearGradient>
  </defs>
  
  <path d="M36 100 L36 50 a5 5 0 0 1 1.7-3.7 L60 24 a6 6 0 0 1 8 0&#xA;           C 84 33 96 48 96 66 C 96 86 81 100 60 100 Z" fill="url(#doBlue)"></path>
  
  <path d="M52 86 L52 56 L62 47 C 73 53 80 60 80 70 C 80 79 73 86 63 86 Z" fill="#0E1730"></path>
  
  <g fill="url(#doWin)">
    <rect x="40.5" y="55" width="7.5" height="7.5" rx="1.6"></rect>
    <rect x="40.5" y="65.5" width="7.5" height="7.5" rx="1.6"></rect>
  </g>
  
  <path d="M60 24 a6 6 0 0 1 8 0 L66 31 a3 3 0 0 0-4 0 Z" fill="#7FC0FF"></path>
</svg>